<svg width="" height="" viewBox="0 0 24 24" fill="none" xmlns="http://www.w3.org/2000/svg">
<g id="Frame">
<path id="Vector" d="M12 22C17.5228 22 22 17.5228 22 12C22 6.47715 17.5228 2 12 2C6.47715 2 2 6.47715 2 12C2 17.5228 6.47715 22 12 22Z" stroke="white" stroke-width="2" stroke-linecap="round" stroke-linejoin="round"/>
<path id="Vector_2" d="M14.83 14.83C14.2704 15.389 13.5577 15.7695 12.7819 15.9235C12.0061 16.0774 11.202 15.998 10.4714 15.6951C9.74074 15.3922 9.11629 14.8795 8.67696 14.2218C8.23763 13.5641 8.00314 12.7909 8.00314 12C8.00314 11.2091 8.23763 10.4359 8.67696 9.77818C9.11629 9.12048 9.74074 8.60779 10.4714 8.30491C11.202 8.00203 12.0061 7.92256 12.7819 8.07654C13.5577 8.23052 14.2704 8.61104 14.83 9.17" stroke="white" stroke-width="2" stroke-linecap="round" stroke-linejoin="round"/>
</g>
</svg>
