<svg width="" height="" viewBox="0 0 50 50" fill="none" xmlns="http://www.w3.org/2000/svg">
<g id="exp-icon">
<path id="Vector" d="M31.25 25L13.8063 42.4437C12.9774 43.2725 11.8534 43.7382 10.6813 43.7382C9.50915 43.7382 8.38505 43.2725 7.55625 42.4437C6.72745 41.6149 6.26183 40.4908 6.26183 39.3187C6.26183 38.1466 6.72745 37.0225 7.55625 36.1937L25 18.75" stroke="white" stroke-width="2" stroke-linecap="round" stroke-linejoin="round"/>
<path id="Vector_2" d="M37.5 31.25L45.8333 22.9167" stroke="white" stroke-width="2" stroke-linecap="round" stroke-linejoin="round"/>
<path id="Vector_3" d="M44.7917 23.9583L40.8042 19.9708C40.0227 19.1896 39.5836 18.13 39.5833 17.025V14.5833L34.875 9.87499C32.5511 7.55246 29.4063 6.23824 26.1208 6.21666L18.75 6.16666L20.6667 7.87499C22.028 9.08206 23.1181 10.564 23.865 12.223C24.612 13.882 24.9988 15.6806 25 17.5V20.8333L29.1667 25H31.6083C32.7133 25.0002 33.7729 25.4394 34.5542 26.2208L38.5417 30.2083" stroke="white" stroke-width="2" stroke-linecap="round" stroke-linejoin="round"/>
</g>
</svg>
