<svg width="" height="" viewBox="0 0 50 50" fill="none" xmlns="http://www.w3.org/2000/svg">
<g id="projects-icon">
<path id="Vector" d="M12.5 29.1667L15.5208 23.125C15.8687 22.4347 16.4017 21.8548 17.0603 21.4501C17.7188 21.0453 18.477 20.8318 19.25 20.8333H41.6667M41.6667 20.8333C42.3032 20.8322 42.9315 20.977 43.5034 21.2564C44.0753 21.5359 44.5755 21.9427 44.9658 22.4456C45.356 22.9484 45.6258 23.534 45.7546 24.1574C45.8833 24.7808 45.8675 25.4254 45.7083 26.0417L42.4792 38.5417C42.2479 39.4373 41.7252 40.2305 40.9935 40.7963C40.2617 41.3621 39.3625 41.6683 38.4375 41.6667H8.33333C7.22826 41.6667 6.16845 41.2277 5.38705 40.4463C4.60565 39.6649 4.16666 38.6051 4.16666 37.5V10.4167C4.16666 8.125 6.04166 6.25 8.33333 6.25H16.5208C17.2071 6.25355 17.8819 6.42656 18.4852 6.75366C19.0885 7.08077 19.6017 7.55183 19.9792 8.125L21.6875 10.625C22.0649 11.1982 22.5781 11.6692 23.1815 11.9963C23.7848 12.3234 24.4595 12.4964 25.1458 12.5H37.5C38.6051 12.5 39.6649 12.939 40.4463 13.7204C41.2277 14.5018 41.6667 15.5616 41.6667 16.6667V20.8333Z" stroke="white" stroke-width="2" stroke-linecap="round" stroke-linejoin="round"/>
<path id="Vector_2" d="M29.1667 33.3333C30.3173 33.3333 31.25 32.4006 31.25 31.25C31.25 30.0994 30.3173 29.1667 29.1667 29.1667C28.0161 29.1667 27.0833 30.0994 27.0833 31.25C27.0833 32.4006 28.0161 33.3333 29.1667 33.3333Z" stroke="white" stroke-width="2" stroke-linecap="round" stroke-linejoin="round"/>
</g>
</svg>
